# xmcd
# Track frame offsets:
# 150
# 5650
# 12550
# 27442
# 40185
# 63110
# 78835
# 93850
# 109142
# 123120
# 138517
# 152142
# 166190
# 179065
# 194837
# 210555
# 237350
# 251800
#
# Disc length: 3569 seconds
# Revision: 2
# Processed by: cddbd v1.5.2PL0 Copyright (c) Steve Scherf et al.
# Submitted via: VisiTrax 2.11.3.279 - For more info visit www.synapsa.com
#
DISCID=f40def12
DTITLE=Slim Dusty - Live Into The 90's
DYEAR=1992
DGENRE=Australian Country
TTITLE0=Slim Dusty - G'day G'day
TTITLE1=Slim Dusty - I'm Going Back Again To Yarrawonga
TTITLE2=Slim Dusty - The Flying Doctor's Ball
TTITLE3=Slim Dusty - Things Are Not The Same On The Land
TTITLE4=Anne Kirkpatrick - Auctioneer
TTITLE5=Slim Dusty - Lace-Up Shoes
TTITLE6=Slim Dusty - Catching Yellow Belly (In The Old Barcoo)
TTITLE7=David Kirkpatrick and Slim Dusty - When The Currawongs Come Down
TTITLE8=David Kirkpatrick - Aussie Doghouse Blues
TTITLE9=Slim Dusty - To Whom It May Concern
TTITLE10=Slim Dusty - Been A Fool Too Long
TTITLE11=Slim Dusty - That'll Do Me
TTITLE12=Slim Dusty - Three Hundred Horses
TTITLE13=Slim Dusty and Anne Kirkpatrick - High, Dry And Homeless
TTITLE14=Slim Dusty - I'm Still Here To Give It My Best
TTITLE15=Slim Dusty and The McKean Sisters - Yodel Medley: Prairie Loveknot, Th
TTITLE15=e Valley Where The Frangipanis Grow, My Sunset Home, Yodel Down The Va
TTITLE15=lley
TTITLE16=Slim Dusty - Lights On The Hill
TTITLE17=Slim Dusty - Losin' My Blues Tonight
EXTD=1992 EMI Music Australia
EXTT0=
EXTT1=
EXTT2=
EXTT3=
EXTT4=
EXTT5=
EXTT6=
EXTT7=
EXTT8=
EXTT9=
EXTT10=
EXTT11=
EXTT12=
EXTT13=
EXTT14=
EXTT15=
EXTT16=
EXTT17=
PLAYORDER=
